<svg width="27" height="27" viewBox="0 0 27 27" fill="none" xmlns="http://www.w3.org/2000/svg">
<path d="M26.6668 13.0556C26.6668 20.266 20.8216 26.1111 13.6112 26.1111C6.40082 26.1111 0.555664 20.266 0.555664 13.0556C0.555664 5.84515 6.40082 0 13.6112 0C20.8216 0 26.6668 5.84515 26.6668 13.0556ZM12.1011 19.9684L21.7875 10.282C22.1164 9.95307 22.1164 9.41974 21.7875 9.09083L20.5963 7.89966C20.2674 7.5707 19.7341 7.5707 19.4051 7.89966L11.5055 15.7992L7.81734 12.1111C7.48843 11.7822 6.9551 11.7822 6.62613 12.1111L5.43497 13.3022C5.10605 13.6312 5.10605 14.1645 5.43497 14.4934L10.9099 19.9683C11.2388 20.2973 11.7721 20.2973 12.1011 19.9684Z" fill="#783BA2"/>
</svg>
