<svg width="20" height="19" viewBox="0 0 20 19" fill="none" xmlns="http://www.w3.org/2000/svg">
<path d="M0.714286 3.40771H19.2857C19.6802 3.40771 20 3.06869 20 2.65044V0.757268C20 0.339019 19.6802 0 19.2857 0H0.714286C0.319777 0 0 0.339019 0 0.757268V2.65044C0 3.06869 0.319777 3.40771 0.714286 3.40771ZM0.714286 10.9804H19.2857C19.6802 10.9804 20 10.6414 20 10.2231V8.32995C20 7.9117 19.6802 7.57268 19.2857 7.57268H0.714286C0.319777 7.57268 0 7.9117 0 8.32995V10.2231C0 10.6414 0.319777 10.9804 0.714286 10.9804ZM0.714286 18.5531H19.2857C19.6802 18.5531 20 18.214 20 17.7958V15.9026C20 15.4844 19.6802 15.1454 19.2857 15.1454H0.714286C0.319777 15.1454 0 15.4844 0 15.9026V17.7958C0 18.214 0.319777 18.5531 0.714286 18.5531Z" fill="#783BA2"/>
</svg>
